<?xml version="1.0" encoding="utf-8"?>
<!-- Generator: Adobe Illustrator 24.0.0, SVG Export Plug-In . SVG Version: 6.00 Build 0)  -->
<svg version="1.1" id="Capa_1" xmlns="http://www.w3.org/2000/svg" xmlns:xlink="http://www.w3.org/1999/xlink" x="0px" y="0px"
	 viewBox="0 0 126 62" style="enable-background:new 0 0 126 62;" xml:space="preserve">
<style type="text/css">
	.st0{fill:#4AAEBF;}
	.st1{fill:#54C6CF;}
	.st2{opacity:0.1;fill:#650E80;}
	.st3{fill:#2F94A1;}
	.st4{fill:#002426;}
	.st5{fill:#EC7DB7;}
	.st6{fill:#D661A3;}
	.st7{fill:#FFFFFF;}
</style>
<g>
	<path class="st0" d="M86.9,25.8c0,0,24.7-24.7,31.8-21.8c7.1,2.9-2.5,17.6,1.7,20.5c4.2,2.9,5.4,8.8,3.8,12.5
		c-1.7,3.8-7.9,7.9-6.7,11.7c1.3,3.8,2.5,9.6-2.1,10C110.7,59.2,87.3,40.8,86.9,25.8z"/>
	<path class="st0" d="M39.2,25.2c0,0-24.7-24.7-31.8-21.8C0.2,6.3,9.9,21,5.7,23.9s-5.4,8.8-3.8,12.5c1.7,3.8,7.9,7.9,6.7,11.7
		c-1.3,3.8-2.5,9.6,2.1,10C15.3,58.6,38.7,40.2,39.2,25.2z"/>
	<path class="st1" d="M96.7,30.6C97.1,14.2,73.4,0.7,52,7.4C30.5,14,24.5,32.4,36.6,47C50.5,63.7,95.9,61.1,96.7,30.6z"/>
	<path class="st1" d="M96.7,30.6C97.1,14.2,73.4,0.7,52,7.4c-4.4,1.4-8.2,3.3-11.3,5.5c-13.9,23.4,8.2,38.8,30.2,43.8
		C84.3,54.4,96.3,46.1,96.7,30.6z"/>
	<path class="st2" d="M40.6,12.9C28.8,21.5,27,35.4,36.6,47c6.8,8.2,21.2,11.8,34.2,9.7C48.9,51.7,26.8,36.3,40.6,12.9z"/>
	<path class="st3" d="M34.4,19.9c0,0-0.1,0.3-0.3,0.9c-0.2,0.6-0.4,1.4-0.6,2.4c-0.1,0.5-0.2,1-0.3,1.6c-0.1,0.6-0.2,1.2-0.3,1.8
		c-0.1,0.6-0.1,1.3-0.2,1.9c-0.1,0.7-0.1,1.3-0.1,2c-0.1,1.3,0,2.7,0.1,3.9c0.1,0.6,0.1,1.2,0.2,1.8c0,0.6,0.2,1.1,0.2,1.6
		c0.1,0.5,0.1,1,0.2,1.4c0.1,0.4,0.1,0.8,0.2,1.1c0.1,0.6,0.1,1,0.1,1l0,0.1c0.1,0.5-0.3,1-0.8,1.1c-0.4,0-0.8-0.2-1-0.5
		c0,0-0.2-0.3-0.5-0.9c-0.1-0.3-0.3-0.7-0.5-1.1c-0.2-0.4-0.4-0.9-0.6-1.4c-0.2-0.5-0.4-1.1-0.5-1.7c-0.1-0.6-0.3-1.3-0.4-2
		c-0.1-0.7-0.2-1.4-0.3-2.2c0-0.7-0.1-1.5,0-2.3c0-0.8,0.1-1.5,0.2-2.3c0.1-0.7,0.2-1.5,0.4-2.2c0.1-0.7,0.4-1.4,0.6-2
		c0.2-0.6,0.4-1.2,0.7-1.7c0.5-1.1,1-1.9,1.3-2.4c0.4-0.6,0.7-0.9,0.7-0.9c0.3-0.5,0.9-0.6,1.3-0.3C34.5,18.8,34.7,19.4,34.4,19.9z"
		/>
	<path class="st3" d="M94.3,20.4c0,0,0.3,0.3,0.7,0.8c0.4,0.5,0.9,1.3,1.3,2.3c0.3,0.5,0.5,1.1,0.7,1.7c0.2,0.6,0.4,1.2,0.6,1.9
		c0.2,0.7,0.3,1.4,0.4,2.1c0.1,0.7,0.1,1.5,0.2,2.2c0,0.7,0,1.5,0,2.2c-0.1,0.7-0.2,1.4-0.3,2.1c-0.1,0.7-0.3,1.3-0.4,1.9
		c-0.1,0.6-0.4,1.2-0.5,1.7c-0.3,1-0.8,1.9-1.1,2.4c-0.3,0.6-0.5,0.9-0.5,0.9c-0.3,0.5-0.9,0.6-1.3,0.4c-0.3-0.2-0.5-0.6-0.5-1
		l0-0.1c0,0,0-0.3,0.1-0.9c0.1-0.3,0.1-0.6,0.2-1c0.1-0.4,0.1-0.9,0.2-1.4c0.1-0.5,0.2-1,0.2-1.6c0.1-0.6,0.1-1.2,0.2-1.8
		c0.1-1.2,0.1-2.5,0.1-3.8c-0.1-0.6,0-1.3-0.1-1.9c-0.1-0.6-0.1-1.3-0.2-1.9c-0.1-0.6-0.2-1.2-0.3-1.7c-0.1-0.5-0.2-1.1-0.3-1.5
		c-0.2-1-0.5-1.7-0.6-2.3c-0.2-0.6-0.3-0.8-0.3-0.8c-0.3-0.4-0.1-1,0.3-1.3C93.4,19.8,94,19.9,94.3,20.4z"/>
	<path class="st4" d="M47.9,30.8c0-1.3-1-2.3-2.3-2.3c-1.3,0-2.3,1-2.3,2.3c0,1.3,1,2.3,2.3,2.3C46.9,33.1,47.9,32.1,47.9,30.8z"/>
	<path class="st4" d="M83.1,30.8c0-1.3-1-2.3-2.3-2.3c-1.3,0-2.3,1-2.3,2.3c0,1.3,1,2.3,2.3,2.3C82,33.1,83.1,32.1,83.1,30.8z"/>
	<g>
		<g>
			<path class="st5" d="M58.3,34.6c0,0-0.3,7.5,1.1,10.2c1,1.9,7,2,8.1-0.3c0.6-1.4,0.8-9.7,0.8-9.7S64.1,35.4,58.3,34.6z"/>
			<path class="st6" d="M63.5,34.5c0,0,0.1,0.6,0.2,1.5c0,0.4,0.1,1,0.1,1.5c0,0.6,0,1.2,0,1.8c0,0.6,0,1.2-0.1,1.8
				c0,0.6-0.1,1.1-0.1,1.5c-0.1,0.9-0.2,1.5-0.2,1.5c0,0.2-0.2,0.3-0.4,0.3c-0.1,0-0.2-0.1-0.3-0.3l0,0c0,0-0.1-0.6-0.1-1.5
				c0-0.4-0.1-1-0.1-1.5c0-0.6,0-1.2,0-1.7c0-1.2,0.1-2.4,0.1-3.3c0-0.9,0.1-1.5,0.1-1.5c0-0.2,0.2-0.3,0.4-0.3
				C63.4,34.3,63.5,34.4,63.5,34.5z"/>
		</g>
		<g>
			<path class="st4" d="M52.2,29.6c0,0,0.4,0.3,0.7,1c0.2,0.3,0.4,0.7,0.5,1.1c0.1,0.4,0.2,0.9,0.2,1.4c0,0.5-0.1,1-0.2,1.4
				c0,0.2-0.2,0.4-0.3,0.6c-0.1,0.2-0.2,0.4-0.3,0.5c-0.2,0.3-0.4,0.5-0.6,0.7c-0.1,0.1-0.2,0.2-0.2,0.2c-0.1,0.1-0.3,0.1-0.4,0
				c-0.1-0.1-0.1-0.3,0-0.4c0,0,0.2-0.4,0.5-0.9c0.1-0.3,0.2-0.6,0.3-1c0.1-0.4,0.1-0.7,0.1-1.1c0-0.4,0-0.8-0.1-1.2
				c-0.1-0.4-0.2-0.7-0.3-1c-0.2-0.6-0.4-1-0.4-1c-0.1-0.2,0-0.4,0.2-0.4C52,29.5,52.1,29.6,52.2,29.6z"/>
			<path class="st4" d="M74.9,30c0,0-0.2,0.4-0.4,1c-0.1,0.3-0.2,0.6-0.3,1c-0.1,0.4-0.1,0.8-0.1,1.2c0,0.4,0,0.8,0.1,1.1
				c0.1,0.4,0.2,0.7,0.3,1c0.2,0.6,0.5,0.9,0.5,0.9c0.1,0.1,0.1,0.3,0,0.4c-0.1,0.1-0.3,0.1-0.4,0c0,0-0.1-0.1-0.2-0.2
				c-0.1-0.2-0.4-0.4-0.6-0.7c-0.1-0.2-0.2-0.3-0.3-0.5c-0.1-0.2-0.2-0.4-0.3-0.6c-0.1-0.4-0.2-0.9-0.2-1.4c0-0.5,0.1-1,0.2-1.4
				c0.1-0.4,0.3-0.8,0.5-1.1c0.4-0.6,0.7-1,0.7-1c0.1-0.1,0.3-0.1,0.5,0C75,29.8,75,29.9,74.9,30z"/>
			<path class="st4" d="M53.1,32.6c0,0,0.3,0.1,0.8,0.3c0.5,0.2,1.3,0.4,2.3,0.6c0.9,0.2,2.1,0.4,3.3,0.5c0.6,0.1,1.2,0.1,1.9,0.2
				c0.6,0,1.3,0,1.9,0l0.5,0l0.2,0l0.2,0c0.3,0,0.7,0,1,0c0.7,0,1.3,0,1.9-0.1c0.6-0.1,1.2-0.1,1.7-0.2c0.5-0.1,1.1-0.1,1.5-0.2
				c0.5-0.1,0.9-0.2,1.3-0.3c0.4-0.1,0.7-0.2,0.9-0.3c0.3-0.1,0.4-0.2,0.6-0.2c0.1-0.1,0.2-0.1,0.2-0.1l0.1,0c0.2-0.1,0.5,0,0.6,0.2
				c0.1,0.2,0,0.4-0.1,0.6c0,0-0.1,0.1-0.2,0.2c-0.1,0.1-0.3,0.2-0.6,0.4c-0.3,0.2-0.6,0.3-1,0.5c-0.4,0.2-0.8,0.3-1.3,0.5
				c-0.5,0.2-1,0.2-1.6,0.4c-0.6,0.2-1.2,0.2-1.8,0.3c-0.6,0.1-1.3,0.1-1.9,0.1c-0.3,0-0.7,0-1,0l-0.2,0c-0.1,0-0.2,0-0.3,0l-0.5,0
				c-0.7,0-1.3-0.1-2-0.1c-0.7-0.1-1.3-0.1-1.9-0.2c-1.2-0.2-2.4-0.5-3.4-0.8c-0.5-0.1-0.9-0.3-1.3-0.4c-0.4-0.1-0.7-0.3-1-0.4
				c-0.6-0.3-0.8-0.4-0.8-0.4c-0.2-0.1-0.3-0.4-0.2-0.6C52.7,32.6,52.9,32.5,53.1,32.6z"/>
		</g>
	</g>
	<path class="st7" d="M70.2,11c-1.2,2,6.3,5,8.8,6.3c4.8,2.4,8.6,3.4,9,1.1C88.6,14.8,73.2,6.1,70.2,11z"/>
	<path class="st7" d="M67.8,8.1c-0.8-0.6-5.3-1.1-5.8,0.6c-0.5,1.8,1.1,2.7,3.8,2.6C67.9,11.3,69.5,9.3,67.8,8.1z"/>
</g>
</svg>
