<?xml version="1.0" encoding="utf-8"?>
<!-- Generator: Adobe Illustrator 24.0.0, SVG Export Plug-In . SVG Version: 6.00 Build 0)  -->
<svg version="1.1" id="Capa_1" xmlns="http://www.w3.org/2000/svg" xmlns:xlink="http://www.w3.org/1999/xlink" x="0px" y="0px"
	 viewBox="0 0 111 106" style="enable-background:new 0 0 111 106;" xml:space="preserve">
<style type="text/css">
	.st0{fill:#E780AD;}
	.st1{fill:#FDB6DB;}
	.st2{fill:#C52A40;}
	.st3{fill:#E15D9B;}
	.st4{fill:#150400;}
	.st5{fill:#F788BF;}
	.st6{fill:#FFFFFF;}
</style>
<g>
	<g>
		<path class="st0" d="M51.7,32.8c0,0-20.3-11.7-34.9-4.6C11.6,30.8,6.5,35.3,4,44.1c-2,7-1.6,13.7-0.2,19.4
			c7.9,33.2,64.9,45.2,76.7,39C97.9,93.4,121.9,16.6,90,4C70.2-3.8,55.7,11.5,51.7,32.8z"/>
		<path class="st1" d="M54.5,31.8c0,0-13.9-7.2-27.4-5.7c-7.8,0.8-16.8,6.6-19.4,14.4c-15.4,47,62.1,65.3,76,58
			c17.4-9.1,40.8-81.3,8.9-93.9C72.8-3.3,58.5,10.5,54.5,31.8z"/>
	</g>
	<path class="st2" d="M44.2,55.4c0,0-5.2-2.6-6.3,1c-1.8,6.2,8.3,8.7,10.1,7.7c2.3-1.2,5.3-10.6,1.2-12.3
		C46.5,50.9,44.7,52.7,44.2,55.4z"/>
	<path class="st2" d="M79.1,36.1c0,0-5.2-2.6-6.3,1c-1.8,6.2,8.9,8.4,10.8,7.4c2.3-1.2,4.7-10.7,0.5-12.4
		C81.6,31.1,79.7,33.3,79.1,36.1z"/>
	<g>
		<path class="st3" d="M63.1,63.4c1-1.7,5.8-9.3,13.4-6.4c-1.5,1.5-3.7,3-6.6,4.4C67.4,62.6,65.1,63.2,63.1,63.4z"/>
		<path class="st4" d="M66.4,53.6c5.5-2.8,9.5-7.7,12.2-5.7c1.9,1.4,1.9,5.3-2.1,9.2c-7.6-2.9-12.4,4.7-13.4,6.4
			c-6.2,0.7-9.8-2.6-8.8-4.8C55.5,55.7,61.8,55.9,66.4,53.6z"/>
	</g>
	<circle class="st5" cx="45.8" cy="76.2" r="9.3"/>
	<circle class="st5" cx="94" cy="50.8" r="9.3"/>
	<path class="st6" d="M76.9,8.8c-0.5,2.8,7.4,4.1,11.5,6.4c5.2,2.9,8.5,6,10.5,4.5c1.4-1.1,0.1-6.6-5.5-10.2
		C86.5,4.9,77.9,3.8,76.9,8.8z"/>
	<path class="st6" d="M101.4,20.7c-0.8-0.3-1.7,1-1.3,2.1c0.4,1.1,1.3,3.2,2.9,2.7S103.4,21.5,101.4,20.7z"/>
</g>
</svg>
