<?xml version="1.0" encoding="utf-8"?>
<!-- Generator: Adobe Illustrator 24.0.0, SVG Export Plug-In . SVG Version: 6.00 Build 0)  -->
<svg version="1.1" id="Capa_1" xmlns="http://www.w3.org/2000/svg" xmlns:xlink="http://www.w3.org/1999/xlink" x="0px" y="0px"
	 viewBox="0 0 137 170" style="enable-background:new 0 0 137 170;" xml:space="preserve">
<style type="text/css">
	.st0{fill:#C60533;}
	.st1{fill:#3B3B3F;}
	.st2{fill:#E15992;}
	.st3{fill:#200011;}
	.st4{fill:#F27AA1;}
	.st5{fill:#002733;}
</style>
<g>
	<path class="st0" d="M125.8,3H11.2c-4.7,0-8.5,4.4-8.5,9.8v140.1h131.6V12.8C134.3,7.4,130.5,3,125.8,3z M127.1,18.8v0.5v74.7v0.5
		v0.1c0,4.3-3.5,7.9-7.9,7.9h-0.1h-0.5H18.9h-0.5h-0.1c-4.3,0-7.9-3.5-7.9-7.9v-0.1v-0.5V19.2v-0.5v-0.1c0-4.3,3.5-7.9,7.9-7.9h0.1
		h0.5h99.8h0.5h0.1C123.6,10.8,127.1,14.4,127.1,18.8L127.1,18.8z"/>
	<path class="st1" d="M16.8,167h103.4c7.8,0,14.1-6.3,14.1-14.1l0,0H2.7l0,0C2.7,160.7,9,167,16.8,167z"/>
	<ellipse class="st2" cx="28" cy="124.7" rx="9.2" ry="4.2"/>
	<ellipse class="st2" cx="113.1" cy="124.7" rx="9.2" ry="4.2"/>
	<path class="st3" d="M34.9,114c-0.4-1.9-2.3-3.2-4.3-2.7c-1.9,0.4-3.2,2.3-2.7,4.3c0.4,1.9,2.3,3.2,4.3,2.8
		C34.1,117.9,35.3,115.9,34.9,114z"/>
	<path class="st3" d="M111.9,114c-0.4-1.9-2.3-3.2-4.3-2.7c-1.9,0.4-3.2,2.3-2.7,4.3c0.4,1.9,2.3,3.2,4.3,2.8
		C111.1,117.9,112.4,115.9,111.9,114z"/>
	<g>
		<path class="st4" d="M63.3,137.4c1.4-1.3,8-6.8,14.2-0.4c-1.8,1.1-4.3,1.8-7.6,1.9C67.2,138.9,65,138.3,63.3,137.4z"/>
		<path class="st5" d="M81.4,129.7c0.7,1.8-0.3,5.3-3.9,7.3c-6.3-6.3-12.8-0.9-14.2,0.4c-4.6-2.3-5.9-6.9-4.2-8.6
			c1.3-1.4,6.1,0.1,10.9,0.1C75.2,128.8,80.5,127.3,81.4,129.7z"/>
	</g>
</g>
</svg>
