<?xml version="1.0" encoding="utf-8"?>
<!-- Generator: Adobe Illustrator 24.0.0, SVG Export Plug-In . SVG Version: 6.00 Build 0)  -->
<svg version="1.1" id="Capa_1" xmlns="http://www.w3.org/2000/svg" xmlns:xlink="http://www.w3.org/1999/xlink" x="0px" y="0px"
	 viewBox="0 0 123 68" style="enable-background:new 0 0 123 68;" xml:space="preserve">
<style type="text/css">
	.st0{fill:#E86392;}
	.st1{fill:#C60533;}
	.st2{fill:#F57CA0;}
	.st3{opacity:0.2;fill:#650E80;}
	.st4{fill:#81101B;}
	.st5{fill:#1F0000;}
</style>
<g>
	<g>
		<path class="st0" d="M20.1,46.2c0,0-14.6-3-16.6,0c-2,3,4,5.9,3.5,8.5c-0.4,2.6-0.1,6.5,2,7.4c2.1,0.9,4.3,1.5,4.7,3.6
			c0.5,2.2,6.5-0.4,10.7-9C24.5,56.6,23.9,48,20.1,46.2z"/>
		<path class="st0" d="M100.1,13.4c0,0,7.4-12.1,12.4-11.8c3.6,0.2,0.3,7.9,2.8,8.5c3.9,0.9,5.3,4.1,4.2,6.1
			c-2.3,4.4-0.1,4.8-0.1,7.6c0,2.2-5.9,3.3-14.9,0.2C104.5,23.9,98.8,17.5,100.1,13.4z"/>
		<g>
			<path class="st1" d="M104.2,14.6c-2.3,7.2-6.1,16.9-11.4,25.5c-4.6,2.1-9.8,4.3-15.2,6.6C87.8,31.8,92.9,12.1,94,7.6
				c1.8-0.6,3.1-1,3.6-1.1C99.5,6.2,102,9.9,104.2,14.6z"/>
			<path class="st1" d="M76.4,13.9c-0.8,3.6-5.9,24.4-16.8,39.8C52,56.6,45,59.2,39.5,61c10.5-13.6,16.2-32.7,18-39.9
				C64.1,18.6,70.6,16.1,76.4,13.9z"/>
			<path class="st1" d="M30.9,32.1c3.4-1.5,7.4-3.2,11.5-4.9c-1.1,4.4-5.7,20-16.5,33.9c-1.5-2.3-3.2-5.6-4.6-8.9
				C26,44.9,29.4,36.1,30.9,32.1z"/>
			<path class="st2" d="M104.2,14.6c2.8,6,5.2,13.5,5,15.6c-0.1,1.8-6.9,5.5-16.4,9.9C98.1,31.4,101.8,21.8,104.2,14.6z"/>
			<path class="st2" d="M94,7.6c-1.1,4.5-6.1,24.2-16.4,39c-5.9,2.4-12.1,4.9-17.9,7.1c10.9-15.4,16-36.3,16.8-39.8
				C83.8,11.1,90.1,8.9,94,7.6z"/>
			<path class="st2" d="M57.5,21.1c-1.9,7.2-7.5,26.3-18,39.9c-5.7,1.9-9.6,3.1-10.5,3c-0.9-0.1-2-1.2-3.1-3
				c10.8-13.9,15.4-29.5,16.5-33.9C47.2,25.2,52.4,23.1,57.5,21.1z"/>
			<path class="st2" d="M30.9,32.1c-1.5,4-4.9,12.8-9.6,20c-2.6-6.2-4.3-12.6-2.9-13.6C20.3,37,24.9,34.8,30.9,32.1z"/>
		</g>
		<path class="st3" d="M30.6,32.2c-5.9,2.6-10.4,4.9-12.2,6.3c-1.4,1,0.4,7.5,2.9,13.6c1.4,3.4,3,6.7,4.6,8.9c1.2,1.7,2.3,2.9,3.1,3
			c0.8,0.1,4.8-1.1,10.5-3c5.5-1.8,12.5-4.4,20.1-7.3c5.9-2.2,12-4.7,17.9-7.1c5.4-2.2,10.7-4.5,15.2-6.6c0.6-0.3,1.2-0.6,1.8-0.8
			C71.4,43.5,47.6,54.8,30.6,32.2z"/>
		<path class="st4" d="M19.2,45.3c0,0,0.1,0.2,0.2,0.6c0.1,0.4,0.3,0.9,0.5,1.6c0.1,0.3,0.2,0.7,0.4,1.1c0.1,0.4,0.3,0.8,0.4,1.2
			c0.2,0.4,0.3,0.8,0.5,1.2c0.1,0.4,0.3,0.9,0.5,1.3c0.2,0.4,0.3,0.8,0.5,1.3c0.1,0.4,0.4,0.8,0.5,1.2c0.2,0.4,0.3,0.8,0.5,1.1
			c0.2,0.4,0.3,0.7,0.5,1c0.6,1.2,1,2.1,1,2.1l0,0.1c0.1,0.3,0,0.6-0.3,0.7c-0.2,0.1-0.5,0-0.6-0.1c0,0-0.6-0.7-1.5-1.9
			c-0.2-0.3-0.5-0.6-0.7-1c-0.2-0.4-0.4-0.7-0.7-1.1c-0.2-0.4-0.5-0.8-0.7-1.2c-0.2-0.4-0.4-0.9-0.6-1.3c-0.4-0.9-0.6-1.8-0.9-2.7
			c-0.1-0.4-0.2-0.9-0.3-1.3c-0.1-0.4-0.2-0.8-0.2-1.2c-0.1-0.7-0.1-1.3-0.2-1.8c0-0.4,0-0.7,0-0.7l0,0c0-0.3,0.3-0.5,0.6-0.5
			C19,44.9,19.1,45.1,19.2,45.3z"/>
		<path class="st4" d="M103,10.5c0,0,0.2,0.1,0.5,0.5c0.3,0.3,0.7,0.8,1.1,1.4c0.2,0.3,0.4,0.6,0.7,1c0.2,0.3,0.5,0.7,0.7,1.1
			c0.4,0.8,0.9,1.6,1.3,2.5c0.2,0.5,0.4,0.9,0.5,1.3c0.2,0.4,0.3,0.9,0.4,1.3c0.1,0.4,0.2,0.9,0.3,1.3c0.1,0.4,0.2,0.8,0.2,1.2
			c0.2,1.5,0.2,2.4,0.2,2.4c0,0.3-0.2,0.5-0.5,0.6c-0.2,0-0.4-0.1-0.5-0.3l0-0.1c0,0-0.3-0.9-0.7-2.2c-0.1-0.3-0.2-0.7-0.4-1
			c-0.1-0.4-0.3-0.8-0.4-1.2c-0.2-0.4-0.3-0.8-0.5-1.2c-0.2-0.4-0.4-0.8-0.5-1.3c-0.2-0.4-0.3-0.8-0.6-1.2c-0.2-0.4-0.4-0.8-0.6-1.2
			c-0.2-0.4-0.4-0.8-0.6-1.1c-0.2-0.4-0.3-0.7-0.5-1c-0.3-0.6-0.6-1.1-0.8-1.5c-0.2-0.4-0.3-0.6-0.3-0.6c-0.1-0.3,0-0.6,0.2-0.7
			C102.6,10.3,102.9,10.3,103,10.5L103,10.5z"/>
	</g>
	<path class="st5" d="M49.1,38.6c-0.5-1.1-1.7-1.6-2.9-1.2c-1.1,0.5-1.6,1.7-1.2,2.9c0.5,1.1,1.7,1.6,2.9,1.2
		C49,41,49.6,39.7,49.1,38.6z"/>
	<path class="st5" d="M81.8,25c-0.5-1.1-1.7-1.6-2.9-1.2c-1.1,0.5-1.6,1.7-1.2,2.9c0.5,1.1,1.7,1.6,2.9,1.2
		C81.7,27.4,82.2,26.1,81.8,25z"/>
	<g>
		<g>
			<path class="st5" d="M51.2,36.6c0,0,0.4,0.2,1,0.6c0.3,0.2,0.6,0.5,0.8,0.8c0.3,0.3,0.5,0.7,0.7,1.2c0.2,0.4,0.3,0.9,0.3,1.3
				c0,0.2,0,0.4,0,0.6c0,0.2,0,0.4-0.1,0.6c0,0.3-0.2,0.6-0.2,0.8c-0.1,0.2-0.1,0.3-0.1,0.3c-0.1,0.1-0.2,0.2-0.3,0.1
				c-0.1,0-0.2-0.2-0.2-0.3l0,0c0,0,0-0.1,0-0.3c0-0.1,0-0.2,0-0.3c0-0.1,0-0.3,0-0.4c0-0.1,0-0.3,0-0.5c0-0.2,0-0.3-0.1-0.5
				c-0.1-0.4-0.1-0.7-0.3-1.1c-0.1-0.4-0.3-0.7-0.5-1c-0.2-0.3-0.4-0.6-0.6-0.8c-0.4-0.5-0.7-0.7-0.7-0.7c-0.1-0.1-0.1-0.3,0-0.4
				C50.9,36.6,51.1,36.6,51.2,36.6z"/>
			<path class="st5" d="M74.9,27c0,0,0,0.4,0,1c0,0.3,0.1,0.6,0.1,1c0.1,0.4,0.2,0.7,0.3,1.1c0.1,0.4,0.3,0.7,0.5,1
				c0.1,0.2,0.2,0.3,0.3,0.4c0.1,0.1,0.2,0.2,0.3,0.3c0.1,0.1,0.2,0.2,0.3,0.3c0.1,0.1,0.2,0.1,0.3,0.2c0.1,0.1,0.2,0.2,0.2,0.2l0,0
				c0.1,0.1,0.1,0.3,0,0.4c-0.1,0.1-0.2,0.1-0.3,0.1c0,0-0.1,0-0.3-0.1c-0.2-0.1-0.4-0.2-0.7-0.4c-0.1-0.1-0.3-0.2-0.4-0.3
				c-0.1-0.1-0.3-0.3-0.4-0.4c-0.3-0.3-0.5-0.7-0.7-1.2c-0.2-0.4-0.3-0.9-0.3-1.3c-0.1-0.4,0-0.8,0-1.2c0.1-0.7,0.3-1.1,0.3-1.1
				c0.1-0.1,0.2-0.2,0.4-0.1C74.9,26.8,75,26.9,74.9,27z"/>
			<path class="st5" d="M53.4,38.7c0,0,0.1,0,0.3,0c0.2,0,0.4-0.1,0.7-0.1c0.6-0.2,1.5-0.3,2.5-0.6c0.5-0.2,1.1-0.3,1.7-0.5
				c0.6-0.2,1.2-0.3,1.9-0.6c1.3-0.5,2.6-1,4-1.5c0.6-0.2,1.3-0.6,2-0.9c0.7-0.3,1.3-0.6,1.9-0.9c0.6-0.3,1.2-0.6,1.8-0.9
				c0.5-0.3,1.1-0.6,1.5-0.8c0.5-0.3,0.9-0.5,1.3-0.7c0.4-0.2,0.7-0.4,1-0.6c0.3-0.2,0.5-0.3,0.6-0.4c0.1-0.1,0.2-0.1,0.2-0.1l0,0
				c0.2-0.1,0.4-0.1,0.5,0.1c0.1,0.2,0.1,0.4,0,0.5c0,0-0.1,0.1-0.2,0.2c-0.1,0.1-0.3,0.3-0.6,0.5c-0.3,0.2-0.6,0.4-0.9,0.7
				c-0.3,0.3-0.8,0.6-1.3,0.9c-0.5,0.3-1,0.6-1.5,0.9c-0.5,0.4-1.1,0.6-1.8,0.9c-0.6,0.3-1.3,0.6-1.9,0.9c-0.7,0.3-1.3,0.6-2,0.9
				c-1.4,0.5-2.8,1-4.1,1.5c-0.6,0.3-1.3,0.4-1.9,0.5c-0.6,0.2-1.2,0.3-1.7,0.4c-0.5,0.2-1.1,0.2-1.5,0.3c-0.5,0.1-0.8,0.1-1.2,0.2
				c-0.3,0.1-0.6,0-0.7,0.1c-0.2,0-0.3,0-0.3,0c-0.2,0-0.4-0.1-0.4-0.3C53.1,38.9,53.2,38.8,53.4,38.7L53.4,38.7z"/>
		</g>
	</g>
</g>
</svg>
