<?xml version="1.0" encoding="utf-8"?>
<!-- Generator: Adobe Illustrator 24.0.0, SVG Export Plug-In . SVG Version: 6.00 Build 0)  -->
<svg version="1.1" id="Capa_1" xmlns="http://www.w3.org/2000/svg" xmlns:xlink="http://www.w3.org/1999/xlink" x="0px" y="0px"
	 viewBox="0 0 111 190" style="enable-background:new 0 0 111 190;" xml:space="preserve">
<style type="text/css">
	.st0{fill:#F99BBE;}
	.st1{fill:#D7D8DC;}
	.st2{opacity:0.1;fill:#650E80;}
	.st3{fill:#ED80AC;}
	.st4{fill:#1F0000;}
	.st5{fill:#E15992;}
</style>
<g>
	<g>
		<path class="st0" d="M37.1,113.7c-3.2-0.1-7.2,0-10.9-1.2c-6-2.1-9.7-10.8-9.7-10.8s-9.2,2.1-13.6-12.9s6-25.4,6-25.4
			s-4.5-6-1.8-18.1c2.6-12.1,14.4-13.9,14.4-13.9c-3.1-9.4,5-12.9,5-12.9s-1.3-6,3.9-10.2c5.2-4.2,14.4,0.5,14.4,0.5
			C48.1,4.2,59.1,4.2,65.4,3c6.3-1.2,12.6,1.3,14,4.3c1.4,3,10,1.2,21,8.7c11,7.5,4.4,20.7,3.5,26.6c-0.9,5.9,5.2,11.1,5.2,18.6
			c0,7.5-7.7,11.4-9.6,13.4c-1.8,2,0.8,4.3-1,12.7c-1.8,8.4-8.6,10.2-8.6,10.2s-0.3,7.1-4.7,12.2c-4.5,5.1-14.2,5.6-17.8,5.6
			c-1.7,0-3.2,0.9-4.8,2c-1.9,1.2-4,2.5-7.1,2.6c-5.8,0.3-10.5-3-13.4-5.1C40.9,114,39.2,113.8,37.1,113.7z"/>
		<path class="st1" d="M55.4,120c3.1-0.1,5.2-1.4,7.1-2.6l0,0.1c-10.5,35-10.8,68.9-10.8,68.9c-1.4,2.1-6.3,0.4-6.3,0.4
			c0.7-55.8-7.2-71.1-8.3-72.9c2,0.1,3.8,0.3,4.9,1.1C44.9,117,49.6,120.2,55.4,120z"/>
		<path class="st1" d="M39.2,118.6c2.6,8,6.7,27.2,6.3,68.1c0,0,4.9,1.7,6.3-0.4c0,0,0.3-30.2,9.2-63
			C53.5,123.9,45.9,122.1,39.2,118.6z"/>
		<path class="st2" d="M62.5,117.3c-1.9,1.2-4,2.5-7.1,2.6c-5.8,0.3-10.5-3-13.4-5.1c-1.1-0.8-2.8-1-4.9-1.1c0.3,0.5,1.1,1.9,2,4.8
			c6.8,3.5,14.4,5.3,21.7,4.8C61.4,121.4,62,119.4,62.5,117.3L62.5,117.3z"/>
	</g>
	<path class="st3" d="M35,31.9l-0.2,1l-0.1,1c0,0.3-0.1,0.7-0.1,1c0,0.3,0,0.7,0,1c0,0.3,0,0.7,0.1,1c0,0.3,0.1,0.6,0.2,0.9
		c0.1,0.3,0.2,0.5,0.4,0.7c0.1,0.2,0.3,0.4,0.5,0.6c0.1,0.1,0.2,0.1,0.3,0.2l0.1,0.1l0,0l0,0c0,0,0.1,0-0.1,0l0,0l0,0l0.1,0l0.3,0.1
		c0.4,0.2,0.5,0.1,0.8,0.2l0.4,0c0.1,0,0.3,0,0.4-0.1c0.3-0.1,0.5-0.1,0.8-0.3c0.3-0.1,0.5-0.3,0.8-0.5c0.2-0.2,0.5-0.4,0.7-0.6
		c0.2-0.2,0.4-0.5,0.6-0.8c0.2-0.3,0.4-0.6,0.5-0.8l0,0c0.2-0.4,0.7-0.5,1.1-0.3c0.3,0.2,0.4,0.4,0.4,0.7c0,0.2,0,0.4,0,0.6
		c0,0.2,0.1,0.4,0.1,0.6c0.1,0.4,0.2,0.8,0.4,1.2c0.4,0.7,1,1.3,1.7,1.5l0.1,0.1l0,0l0,0l0,0c0,0-0.1,0,0,0l0,0l0,0l0.1,0L46,41
		c0.2,0,0.4,0,0.6,0c0.2,0,0.4,0,0.6-0.1c0.2,0,0.4-0.1,0.6-0.2c0.4-0.2,0.7-0.4,1-0.7c0.2-0.1,0.3-0.3,0.4-0.5
		c0.1-0.2,0.3-0.4,0.4-0.5l0-0.1c0.2-0.3,0.5-0.4,0.8-0.2c0.1,0.1,0.2,0.1,0.2,0.2c0.4,0.7,1,1.5,1.5,2.1c0.3,0.3,0.6,0.7,0.9,1
		c0.3,0.3,0.6,0.6,1,0.9c0.3,0.3,0.7,0.5,1.1,0.7c0.4,0.2,0.8,0.4,1.2,0.5c0.2,0.1,0.4,0.1,0.6,0.2l0.6,0.1c0.2,0.1,0.4,0,0.6,0
		c0.2,0,0.4,0,0.6,0c0.2,0,0.4-0.1,0.6-0.1l0.7-0.2c0.5-0.1,0.8-0.2,1.2-0.4c0.4-0.1,0.8-0.3,1.2-0.5c0.4-0.2,0.8-0.4,1.1-0.6
		c0.7-0.5,1.4-1,2.1-1.5c0.7-0.6,1.3-1.2,1.9-1.8l0,0c0.2-0.2,0.5-0.2,0.7,0c0.2,0.2,0.2,0.4,0.1,0.6c-0.3,0.4-0.5,0.8-0.8,1.2
		c-0.3,0.4-0.6,0.7-0.9,1.1c-0.7,0.7-1.4,1.3-2.2,1.8c-0.4,0.3-0.8,0.5-1.2,0.7c-0.4,0.2-0.9,0.4-1.3,0.6c-0.5,0.1-1,0.3-1.4,0.4
		l-0.7,0.1c-0.3,0-0.5,0-0.8,0c-0.3,0-0.5,0-0.8-0.1c-0.2,0-0.5,0-0.7-0.1l-0.7-0.2c-0.2-0.1-0.5-0.2-0.7-0.3
		c-0.4-0.2-0.9-0.5-1.3-0.7c-0.4-0.3-0.8-0.5-1.2-0.8c-0.4-0.3-0.7-0.6-1.1-0.9c-0.3-0.3-0.7-0.7-1-1c-0.3-0.3-0.6-0.7-0.9-1.1
		c-0.3-0.4-0.6-0.7-0.9-1.1l1.1-0.1c-0.1,0.3-0.3,0.5-0.4,0.7c-0.2,0.2-0.3,0.4-0.5,0.6c-0.4,0.4-0.8,0.8-1.3,1
		c-0.3,0.1-0.5,0.2-0.8,0.3c-0.3,0.1-0.6,0.1-0.9,0.1c-0.3,0-0.6,0-0.9-0.1l-0.4-0.1l-0.1,0l0,0l-0.1,0l-0.1,0l-0.2-0.1
		c-0.3-0.1-0.5-0.2-0.8-0.3c-0.3-0.1-0.5-0.3-0.7-0.5c-0.2-0.2-0.4-0.4-0.6-0.6c-0.2-0.2-0.3-0.5-0.5-0.7c-0.3-0.5-0.5-1-0.6-1.5
		c-0.1-0.3-0.1-0.5-0.2-0.8c0-0.3-0.1-0.5-0.1-0.8l1.5,0.4c-0.2,0.4-0.4,0.7-0.6,1c-0.2,0.3-0.5,0.6-0.7,0.9
		c-0.3,0.3-0.5,0.6-0.8,0.8c-0.3,0.3-0.6,0.5-1,0.7c-0.4,0.2-0.8,0.4-1.2,0.5c-0.2,0-0.4,0.1-0.7,0.1l-0.7,0c-0.5,0-1-0.2-1.3-0.3
		l-0.3-0.1l-0.1,0l-0.1,0l0,0l-0.1-0.1l-0.6-0.4c-0.3-0.3-0.7-0.6-0.9-1c-0.3-0.4-0.4-0.8-0.6-1.2c-0.1-0.4-0.2-0.8-0.2-1.2
		c-0.1-0.4,0-0.8,0-1.2c0.1-1.6,0.5-3,1.2-4.4c0.1-0.2,0.4-0.3,0.6-0.2C35,31.4,35.1,31.6,35,31.9L35,31.9z"/>
	<path class="st3" d="M88.3,27c0.3,0.1,0.5,0.2,0.8,0.4c0.3,0.1,0.5,0.3,0.8,0.5c0.5,0.3,0.9,0.7,1.4,1.1c0.2,0.2,0.4,0.4,0.6,0.7
		c0.2,0.2,0.4,0.5,0.5,0.7c0.1,0.3,0.3,0.5,0.4,0.8c0.1,0.3,0.2,0.6,0.3,0.9l0.2,0.9c0.1,0.3,0.1,0.6,0.1,0.9c0.1,0.3,0,0.6,0,0.9
		c0,0.3,0,0.6-0.1,0.9c-0.1,0.3-0.1,0.6-0.2,0.9l-0.3,0.9c-0.1,0.3-0.3,0.5-0.4,0.8c-0.2,0.3-0.3,0.5-0.5,0.8l-0.1-1
		c0.4,0.4,0.8,0.8,1.1,1.3c0.3,0.4,0.7,0.9,1,1.4c0.3,0.5,0.6,1,0.8,1.5c0.1,0.3,0.3,0.5,0.4,0.8c0.1,0.3,0.3,0.5,0.4,0.8l0.3,0.8
		c0.1,0.3,0.1,0.6,0.2,0.9c0.1,0.3,0.1,0.6,0.1,0.9c0,0.3,0,0.6,0,0.9l-0.1,0.9l-0.3,0.8c-0.1,0.3-0.2,0.5-0.4,0.8
		c-0.1,0.2-0.3,0.5-0.5,0.7c-0.1,0.2-0.4,0.3-0.6,0.1c-0.2-0.1-0.2-0.3-0.2-0.5l0-0.1c0.1-0.3,0.1-0.5,0.2-0.7
		c0.1-0.2,0.2-0.5,0.2-0.7l0.1-0.7l0.1-0.7c0-0.2,0-0.5,0-0.7c0-0.2,0-0.5,0-0.7l-0.1-0.7l-0.1-0.7c0-0.2-0.1-0.5-0.2-0.7
		c-0.1-0.2-0.2-0.5-0.3-0.7c-0.1-0.2-0.2-0.5-0.4-0.7c-0.1-0.2-0.3-0.4-0.4-0.6c-0.3-0.4-0.7-0.8-1-1.2c-0.4-0.4-0.8-0.7-1.1-1
		c-0.3-0.2-0.3-0.6-0.2-0.8l0.1-0.1c0.1-0.2,0.2-0.5,0.4-0.7c0.1-0.2,0.3-0.4,0.3-0.7l0.3-0.7c0.1-0.2,0.1-0.5,0.1-0.7
		c0.1-0.2,0.1-0.5,0.1-0.7c0-0.2,0-0.5,0-0.7c0-0.2-0.1-0.5-0.2-0.7l-0.3-0.7l-0.4-0.6c-0.1-0.2-0.3-0.4-0.4-0.6
		c-0.3-0.4-0.6-0.8-0.9-1.2c-0.6-0.8-1.3-1.6-2-2.4c-0.2-0.2-0.2-0.5,0-0.7C87.9,27,88.1,27,88.3,27z"/>
	<path class="st4" d="M33.1,81.8c0,0,0,0.1,0,0.2c0,0.1,0,0.3,0.1,0.5c0.1,0.4,0.2,1.1,0.4,1.8c0.1,0.4,0.3,0.7,0.4,1.1
		c0.2,0.4,0.4,0.7,0.7,1c0.1,0.1,0.3,0.3,0.4,0.4c0.1,0.1,0.3,0.2,0.5,0.3c0.3,0.2,0.7,0.2,1.2,0.2l0,0l0,0l0,0c0,0,0.1,0-0.1,0l0,0
		l0.1,0l0.2,0l0.4,0c0.2-0.1,0.3-0.1,0.5-0.2c0.3-0.2,0.6-0.4,0.9-0.7c0.5-0.6,0.8-1.4,1-2.2c0.2-0.7,0.3-1.4,0.3-1.8
		c0-0.5,0.1-0.7,0.1-0.7l0,0c0-0.3,0.2-0.5,0.5-0.5c0.2,0,0.4,0.2,0.5,0.4c0,0,0.1,0.3,0.1,0.8c0,0.5,0.1,1.2,0,2.1
		c0,0.4-0.1,0.9-0.3,1.4c-0.2,0.5-0.4,1.1-0.7,1.6c-0.3,0.5-0.9,1-1.5,1.3c-0.3,0.1-0.7,0.3-1.1,0.4l-0.4,0.1l-0.2,0l-0.1,0l0,0
		l-0.1,0l0,0l0,0l-0.1,0c-0.7,0-1.4-0.1-2-0.4c-0.3-0.2-0.6-0.3-0.8-0.6c-0.3-0.2-0.5-0.5-0.7-0.7c-0.4-0.5-0.6-1-0.8-1.5
		c-0.1-0.2-0.1-0.5-0.2-0.7c0-0.2-0.1-0.5-0.1-0.7C32,83.8,32,83.1,32,82.6c0-0.3,0-0.4,0-0.6c0-0.1,0-0.2,0-0.2
		c0-0.3,0.3-0.5,0.6-0.4C32.9,81.4,33,81.6,33.1,81.8L33.1,81.8z"/>
	<path class="st4" d="M68.2,81.8c0,0,0,0.1,0,0.2c0,0.1,0,0.3,0.1,0.5c0.1,0.4,0.2,1.1,0.4,1.8c0.1,0.4,0.3,0.7,0.4,1.1
		c0.2,0.4,0.4,0.7,0.7,1c0.1,0.1,0.3,0.3,0.4,0.4c0.1,0.1,0.3,0.2,0.5,0.3c0.3,0.2,0.7,0.2,1.2,0.2l0,0l0,0l0,0c0,0,0.1,0-0.1,0l0,0
		l0.1,0l0.2,0l0.4,0c0.2-0.1,0.3-0.1,0.5-0.2c0.3-0.2,0.6-0.4,0.9-0.7c0.5-0.6,0.8-1.4,1-2.2c0.2-0.7,0.3-1.4,0.3-1.8
		c0-0.5,0.1-0.7,0.1-0.7l0,0c0-0.3,0.2-0.5,0.5-0.5c0.2,0,0.4,0.2,0.5,0.4c0,0,0.1,0.3,0.1,0.8c0,0.5,0.1,1.2,0,2.1
		c0,0.4-0.1,0.9-0.3,1.4c-0.2,0.5-0.4,1.1-0.7,1.6c-0.3,0.5-0.9,1-1.5,1.3c-0.3,0.1-0.7,0.3-1.1,0.4l-0.4,0.1l-0.2,0l-0.1,0l0,0
		l-0.1,0l0,0l0,0l-0.1,0c-0.7,0-1.4-0.1-2-0.4c-0.3-0.2-0.6-0.3-0.8-0.6c-0.3-0.2-0.5-0.5-0.7-0.7c-0.4-0.5-0.6-1-0.8-1.5
		c-0.1-0.2-0.1-0.5-0.2-0.7c0-0.2-0.1-0.5-0.1-0.7c-0.2-0.9-0.1-1.6-0.1-2.1c0-0.3,0-0.4,0-0.6c0-0.1,0-0.2,0-0.2
		c0-0.3,0.3-0.5,0.6-0.4C68,81.4,68.2,81.6,68.2,81.8L68.2,81.8z"/>
	<path class="st4" d="M47.1,85.6c0,0,0,0,0.1,0.1c0.1,0.1,0.2,0.2,0.4,0.3c0.2,0.1,0.4,0.3,0.7,0.5c0.3,0.1,0.6,0.3,0.9,0.5
		c0.4,0.1,0.7,0.4,1.1,0.5c0.4,0.1,0.8,0.3,1.3,0.4c0.5,0.1,0.9,0.2,1.4,0.3c0.5,0,1,0.1,1.5,0.1l0.2,0l0,0l0,0l0,0l0,0
		c-0.2,0,0,0-0.1,0l0.1,0l0.4,0c0.3,0,0.5,0,0.8-0.1c0.3,0,0.6,0,0.8-0.1c0.2-0.1,0.4-0.1,0.6-0.2c0.2-0.1,0.4-0.1,0.6-0.1
		c0.2-0.1,0.4-0.2,0.6-0.2c0.2-0.1,0.4-0.1,0.6-0.2c0.2-0.1,0.3-0.2,0.5-0.3c0.3-0.2,0.6-0.4,0.8-0.6c0.3-0.2,0.4-0.4,0.5-0.5
		c0.1-0.2,0.2-0.3,0.3-0.4c0.1-0.1,0.1-0.1,0.1-0.1l0.1-0.1c0.2-0.2,0.5-0.3,0.7-0.1c0.2,0.1,0.3,0.4,0.2,0.6c0,0,0,0.1-0.1,0.2
		c-0.1,0.1-0.1,0.3-0.3,0.6c-0.2,0.2-0.3,0.5-0.5,0.8c-0.2,0.3-0.5,0.6-0.9,0.9c-0.2,0.1-0.4,0.3-0.6,0.4c-0.2,0.1-0.4,0.2-0.7,0.4
		c-0.2,0.1-0.5,0.2-0.7,0.4c-0.3,0.1-0.5,0.2-0.8,0.3c-0.3,0.1-0.6,0.2-0.9,0.2c-0.3,0.1-0.5,0.1-0.8,0.1c-0.3,0-0.5,0-0.8,0.1
		l-0.4,0l-0.1,0l-0.1,0l0,0l0,0l-0.1,0l-0.2,0c-0.6,0-1.2-0.1-1.7-0.1c-0.6-0.1-1.1-0.3-1.7-0.4c-0.5-0.1-1-0.4-1.5-0.6
		c-0.5-0.2-0.9-0.5-1.2-0.7c-0.4-0.2-0.7-0.5-0.9-0.7c-0.3-0.2-0.5-0.5-0.7-0.7c-0.2-0.2-0.3-0.4-0.4-0.5c-0.1-0.1-0.1-0.2-0.1-0.2
		c-0.1-0.2-0.1-0.5,0.2-0.7C46.7,85.4,47,85.4,47.1,85.6L47.1,85.6z"/>
	<path class="st3" d="M14.8,85.4c0,0-0.1,0.4-0.1,1.3c0,0.8-0.1,1.9,0.1,3.2c0.1,0.6,0.3,1.3,0.5,2c0.1,0.3,0.3,0.7,0.5,1
		c0.1,0.2,0.2,0.3,0.3,0.5c0.1,0.1,0.2,0.3,0.3,0.4c0.5,0.5,1.2,0.8,2,0.8c0.4,0,0.9,0,1.3,0c0.2,0,0.5,0,0.8,0c0.3,0,0.6,0,1.1,0.4
		c0.1,0.1,0.1,0,0.2,0.2c0.1,0.1,0.2,0.2,0.2,0.3c0.1,0.2,0.1,0.3,0.2,0.5c0.1,0.3,0.1,0.5,0.2,0.8c0.1,0.5,0.2,0.9,0.3,1.4
		c0.2,0.9,0.6,1.6,1.2,2.2c0.6,0.6,1.3,0.9,2.1,1c0.7,0.1,1.4,0.1,2.1,0.1c0.7,0,1.3-0.2,1.8-0.3c0.5-0.1,1-0.3,1.4-0.4
		c0.4-0.1,0.7-0.3,0.9-0.3c0.2-0.1,0.3-0.1,0.3-0.1l0.1,0c0.2-0.1,0.5,0,0.6,0.2c0.1,0.2,0,0.4-0.1,0.5c0,0-0.1,0.1-0.3,0.2
		c-0.2,0.1-0.5,0.3-0.9,0.6c-0.8,0.4-2,1-3.6,1.1c-0.8,0.1-1.7,0-2.5-0.4c-0.8-0.3-1.7-0.8-2.4-1.5c-0.7-0.7-1.2-1.6-1.5-2.6
		c-0.2-0.5-0.3-0.9-0.5-1.4c-0.1-0.5-0.3-0.9-0.4-0.9l0,0l0,0c0.2,0.2,0.1,0,0.1,0.1h0l0,0c0,0,0,0-0.1,0c-0.1,0-0.1,0-0.2,0
		c-0.2,0-0.4,0-0.6,0c-0.5,0-1,0.1-1.5,0.1c-1.1,0-2.2-0.5-3-1.2c-0.2-0.2-0.4-0.4-0.6-0.6c-0.2-0.2-0.2-0.3-0.4-0.6
		c-0.3-0.4-0.5-0.8-0.7-1.2c-0.4-0.8-0.7-1.7-0.7-2.5c-0.2-1.6,0.1-2.9,0.4-3.7c0.3-0.8,0.6-1.3,0.6-1.3c0.1-0.2,0.4-0.3,0.7-0.2
		C14.7,85,14.8,85.2,14.8,85.4z"/>
	<ellipse class="st5" cx="32.8" cy="93.4" rx="4.3" ry="2.8"/>
	<ellipse class="st5" cx="75.8" cy="93.1" rx="4.3" ry="2.8"/>
</g>
</svg>
