<?xml version="1.0" encoding="utf-8"?>
<!-- Generator: Adobe Illustrator 24.0.0, SVG Export Plug-In . SVG Version: 6.00 Build 0)  -->
<svg version="1.1" id="Capa_1" xmlns="http://www.w3.org/2000/svg" xmlns:xlink="http://www.w3.org/1999/xlink" x="0px" y="0px"
	 viewBox="0 0 86 139" style="enable-background:new 0 0 86 139;" xml:space="preserve">
<style type="text/css">
	.st0{fill:#63412F;}
	.st1{fill:#F0D19A;}
	.st2{opacity:0.2;fill:#650E80;}
	.st3{opacity:0.2;}
	.st4{fill:#650E80;}
	.st5{fill:#AA518E;}
	.st6{fill:#7A3568;}
	.st7{fill:#E18A9B;}
	.st8{fill:#563424;}
	.st9{fill:#DB2545;}
	.st10{fill:#6F0E01;}
	.st11{fill:#FFFFFF;}
	.st12{fill:#D6B07E;}
</style>
<g>
	<g>
		<g>
			<path class="st0" d="M81.2,52.6c-5.2,3.5-9.2-5.2-12.5-5.4c-3.5-0.2-1.2,8-10,9.3c-8.8,1.3-8-9-13.8-9.4
				c-5.8-0.5-6.4,9.7-13.2,10.3c-6.9,0.6-6.3-11.3-14.2-7.8c-4.7,2-9.1,1.3-10.5-2.2c-0.9-2.4-0.4-6,2.5-10.9
				c7.1-12,21.2-16.6,35.7-15.9c32.4,1.4,42.3,27,36.8,31.7C81.7,52.3,81.5,52.5,81.2,52.6z"/>
			<path class="st1" d="M6.9,47.4c1.3,3.5,5.8,4.3,10.5,2.2c7.9-3.5,7.4,8.4,14.2,7.8c6.9-0.6,7.4-10.8,13.2-10.3
				c5.8,0.5,5,10.7,13.8,9.4c8.8-1.3,6.6-9.5,10-9.3c3.3,0.2,7.4,8.9,12.5,5.4c1.8,7.9,2.2,18.2-2.3,27.5l0,0.2
				c-2.8,0.4-6.5,4.6-6.5,4.6s-2.3-5.9-4.9-6c-2.6-0.1-6.2,4.6-6.2,4.6s-2.7-5-5.4-5.3c-2.8-0.3-6.7,4.8-6.7,4.8s-2.7-6.2-5.8-5.9
				c-3.1,0.3-6.4,4.4-6.4,4.4s-1.5-4.7-6.1-5.7c-2.7-0.6-6.3,3.4-6.3,3.4s-2.5-4.3-5.9-4.9c-3.4-0.7-6.6,4.6-6.6,4.6
				s-3.7-7.2-7.5-7.5l0-0.5C3.2,60.2,4.5,52.9,6.9,47.4z"/>
			<path class="st2" d="M21.8,52c1.2,1.6,2.4,3.1,3.6,4.7c1.7,1.4,4,1.6,6.1,0.8c-6.7,0.4-6.2-11.3-14.1-7.8
				c-4.7,2-9.1,1.3-10.5-2.2c-0.5,1.2-1,2.4-1.4,3.8c-0.3,0.8-0.4,1.3,0.7,1.7C11.4,56.3,17.8,50.1,21.8,52z"/>
			<path class="st2" d="M80.4,55c0.4-0.5,0.7-1,1.1-1.5c-0.1-0.3-0.1-0.6-0.2-0.9c-5.2,3.5-9.2-5.2-12.5-5.4
				c-1.2-0.1-1.7,0.8-2.2,2.1C72.5,48.7,75.9,60.7,80.4,55z"/>
			<g class="st3">
				<path class="st4" d="M23.8,77.9c0.6,0.8,0.9,1.3,0.9,1.3s0.6-0.7,1.6-1.5c-0.3-0.3-4.7-4-7.1-3.4C18.6,74.7,23.3,77.4,23.8,77.9
					z"/>
				<path class="st4" d="M25.7,78.5c-0.8,0.6-1.2,1.1-1.2,1.1s-0.4-0.8-1.1-1.8c0.4-0.3,5.5-2.7,7.7-1.5
					C31.5,76.6,26.3,78.1,25.7,78.5z"/>
				<path class="st4" d="M34.5,77.6c1.1,1,1.8,2.2,2.2,2.9c0.3,0.6,0.4,0.9,0.4,0.9s0.6-0.7,1.4-1.5c0.6-0.6,1.4-1.3,2.3-1.8
					c-1.2,0.1-2.1,0.6-3,1.3C36.8,78.6,35.7,78,34.5,77.6z"/>
				<path class="st4" d="M46.8,79c0.6,0.6,1,1.4,1.4,2c0.6,1.1,1,2,1,2s0.8-1,1.9-2.1c0.6-0.6,1.3-1.2,2-1.7
					c-1.2,0.2-2.3,0.5-3.3,0.9C49,79.6,47.9,79.3,46.8,79z"/>
				<path class="st4" d="M57.7,79c1.3,0.9,2.4,2.5,3.1,3.5c0.4,0.6,0.6,1.1,0.6,1.1s0.5-0.6,1.2-1.4c0.4-0.4,0.9-0.9,1.4-1.3
					c-0.7,0.2-1.3,0.5-1.9,0.8C60.9,80.4,59.5,79.5,57.7,79z"/>
				<path class="st4" d="M78.9,80.1C78.9,80.1,78.9,80,78.9,80.1c-2.6-0.5-4.6,0.3-6.2,1.8c-0.8-0.8-1.8-1.5-3-1.8
					c0.8,0.8,1.4,2,1.9,2.9c0.5,1,0.8,1.8,0.8,1.8s0.6-0.7,1.5-1.5c1.3-1.3,3.3-2.9,5-3.1L78.9,80.1z"/>
				<path class="st4" d="M4.7,70.8c0,0,0,0.1,0,0.1l0,0.5c3.8,0.2,7.5,7.5,7.5,7.5s1-1.6,2.5-3C12.5,72.6,9,70.7,4.7,70.8z"/>
			</g>
			<path class="st2" d="M46.1,48c2.6,1.7,3.5,6,6.1,7.8c3.9,2.6,7.6,2,10.1-0.4c-1,0.6-2.1,1-3.7,1.2c-8.8,1.3-8-9-13.8-9.4
				c-1.6-0.1-2.8,0.5-3.8,1.6C42.6,47.4,44.5,46.9,46.1,48z"/>
			<path class="st5" d="M80.7,80.8c2.5,2.4-15.5,53.8-21.1,55c-7.5,1.6-40.1-1.5-46.8-7.7c-3.4-3.2-13.3-55.5-9.1-56.6
				c0.3-0.1,0.7-0.1,1-0.1c3.8,0.2,7.5,7.5,7.5,7.5s3.2-5.2,6.6-4.6c3.4,0.7,5.9,4.9,5.9,4.9s3.5-4,6.3-3.4c4.6,1,6.1,5.7,6.1,5.7
				s3.3-4,6.4-4.4c3.1-0.3,5.8,5.9,5.8,5.9s3.9-5.1,6.7-4.8c2.8,0.3,5.4,5.3,5.4,5.3s3.6-4.7,6.2-4.6c2.6,0.1,4.9,6,4.9,6
				s3.7-4.3,6.5-4.6C79.6,80.2,80.2,80.3,80.7,80.8z"/>
		</g>
		<path class="st6" d="M14,85.7c0,0,0.5,2.5,0.9,6.3c0.2,1.9,0.3,4.1,0.5,6.5c0.2,2.4,0.4,4.9,0.6,7.4c0.2,2.5,0.3,5.1,0.5,7.4
			c0.2,2.4,0.6,4.6,0.8,6.4c0.2,1.9,0.3,3.5,0.3,4.6c0,1.1,0.1,1.7,0.1,1.7c0,0.2-0.1,0.3-0.3,0.4c-0.2,0-0.3-0.1-0.4-0.3
			c0,0-0.1-0.6-0.3-1.7c-0.2-1.1-0.3-2.7-0.5-4.6c-0.2-1.9-0.2-4.1-0.4-6.5c-0.2-2.4-0.6-4.9-0.8-7.4c-0.3-2.5-0.5-5-0.8-7.4
			c-0.2-2.4-0.6-4.6-0.7-6.5c-0.3-3.8-0.2-6.3-0.2-6.3c0-0.2,0.2-0.3,0.4-0.3C13.8,85.4,13.9,85.5,14,85.7z"/>
		<path class="st6" d="M25.4,84.8c0,0,0,0.7,0.1,1.9c0,1.2,0.1,2.9,0,4.9c0,2-0.2,4.4-0.3,7c0,2.6,0,5.3,0.1,8c0,2.7,0,5.5,0,8
			c0,2.6,0.1,4.9,0,7c-0.1,4.1-0.4,6.8-0.4,6.8c0,0.2-0.2,0.3-0.4,0.3c-0.2,0-0.3-0.2-0.3-0.3c0,0-0.3-2.7-0.3-6.8
			c0-2,0.1-4.4,0.2-7c0-2.6,0.1-5.3,0.2-8c0.1-2.7,0.2-5.4,0.2-8c0-2.6-0.2-4.9-0.1-7c0-2,0.1-3.7,0.1-4.9c0.1-1.2,0.1-1.9,0.1-1.9
			c0-0.2,0.2-0.3,0.4-0.3C25.2,84.5,25.4,84.7,25.4,84.8z"/>
		<path class="st6" d="M37.1,86.3c0,0,0.1,2.7-0.1,6.8c-0.1,2-0.4,4.4-0.6,6.9c-0.2,2.5-0.4,5.3-0.7,8c-0.3,2.7-0.6,5.4-0.7,8
			c-0.2,2.5-0.1,4.9-0.3,7c-0.2,2-0.3,3.7-0.5,4.9c-0.2,1.2-0.2,1.9-0.2,1.9c0,0.2-0.2,0.3-0.4,0.3c-0.2,0-0.3-0.2-0.3-0.3
			c0,0,0-0.7,0-1.9c0-1.2,0.1-2.9,0.3-4.9c0.1-2,0.5-4.4,0.7-6.9c0.2-2.5,0.3-5.3,0.4-8c0.2-2.7,0.3-5.4,0.5-8
			c0.2-2.5,0.2-4.9,0.4-7c0.3-4.1,0.9-6.8,0.8-6.8c0-0.2,0.2-0.3,0.4-0.3C37,86,37.1,86.2,37.1,86.3z"/>
		<path class="st6" d="M48.6,87.6c0,0-0.1,0.7-0.2,1.9c-0.1,1.2-0.3,2.9-0.6,5c-0.3,2-0.8,4.4-1.2,7c-0.4,2.6-0.7,5.3-1,8
			c-0.4,2.7-0.8,5.5-1.1,8c-0.3,2.6-0.6,5-0.9,7c-0.7,4.1-1.4,6.8-1.4,6.8c0,0.2-0.2,0.3-0.4,0.2c-0.2,0-0.3-0.2-0.3-0.3
			c0,0,0.1-2.8,0.6-6.9c0.3-2.1,0.7-4.4,1.1-7c0.4-2.6,0.8-5.3,1.3-8c0.5-2.7,1-5.4,1.3-8c0.4-2.6,0.5-5,0.8-7
			c0.3-2,0.6-3.7,0.8-4.9c0.2-1.2,0.4-1.9,0.4-1.9c0-0.2,0.2-0.3,0.4-0.3C48.5,87.3,48.6,87.4,48.6,87.6z"/>
		<path class="st6" d="M60.6,89.8c0,0-0.3,2.7-1.3,6.6c-0.4,2-1.1,4.2-1.7,6.7c-0.6,2.5-1.3,5.1-2,7.7c-0.7,2.6-1.4,5.2-2,7.7
			c-0.6,2.5-1,4.8-1.5,6.8c-0.5,2-0.9,3.6-1.3,4.7c-0.3,1.1-0.5,1.8-0.5,1.8c-0.1,0.2-0.2,0.3-0.4,0.2c-0.2-0.1-0.3-0.2-0.2-0.4
			c0,0,0.1-0.7,0.3-1.8c0.2-1.2,0.6-2.8,1.1-4.8c0.5-2,1.2-4.2,1.8-6.7c0.6-2.5,1.1-5.1,1.7-7.7c0.6-2.6,1.2-5.3,1.8-7.7
			c0.6-2.5,1-4.8,1.5-6.7c1-3.9,1.9-6.5,1.9-6.5c0.1-0.2,0.3-0.3,0.4-0.2C60.5,89.5,60.6,89.6,60.6,89.8z"/>
		<path class="st6" d="M70.8,91.3c0,0-0.2,0.6-0.5,1.8c-0.4,1.1-0.9,2.7-1.5,4.6c-0.7,1.9-1.6,4.1-2.5,6.4c-0.9,2.4-1.7,4.9-2.5,7.5
			c-0.9,2.5-1.8,5.1-2.6,7.5c-0.8,2.4-1.5,4.6-2.2,6.5c-1.4,3.8-2.6,6.2-2.6,6.2c-0.1,0.2-0.3,0.2-0.5,0.2c-0.1-0.1-0.2-0.2-0.2-0.4
			c0,0,0.6-2.6,1.9-6.5c0.6-1.9,1.5-4.1,2.4-6.5c0.9-2.4,1.8-4.9,2.7-7.4c1-2.5,2-5,2.8-7.4c0.8-2.4,1.4-4.7,2.1-6.6
			c0.7-1.9,1.3-3.5,1.7-4.6c0.5-1.1,0.7-1.7,0.7-1.7c0.1-0.2,0.3-0.3,0.4-0.2C70.7,91,70.8,91.2,70.8,91.3z"/>
		<path class="st0" d="M28.4,64.3c0.2-1.3-0.7-2.4-2-2.6c-1.3-0.2-2.4,0.7-2.6,2c-0.2,1.3,0.7,2.4,2,2.6
			C27.1,66.4,28.3,65.5,28.4,64.3z"/>
		<path class="st0" d="M59.3,68.1c0.2-1.3-0.7-2.4-2-2.6c-1.3-0.2-2.4,0.7-2.6,2c-0.2,1.3,0.7,2.4,2,2.6
			C58,70.3,59.2,69.4,59.3,68.1z"/>
		<g>
			<path class="st7" d="M36.9,70.2c1.1-0.6,6.1-2.9,9.1,1.1c-1.3,0.3-2.9,0.4-4.9,0.1C39.4,71.2,38,70.8,36.9,70.2z"/>
			<path class="st0" d="M41.9,66.1c3.8,0.4,7.5-0.9,8.3,1c0.5,1.4-0.8,3.4-4.2,4.1c-3-4-8.1-1.6-9.1-1.1c-3.5-1.7-4.3-4.6-3-5.4
				C35.5,63.7,38.7,65.9,41.9,66.1z"/>
		</g>
		<path class="st8" d="M40.6,20.9c-1.5,0.3-2.9,2.6-1.8,5.8c1.3,4.1,12.7,5.5,14.7,1.4c2-4.1-0.2-6.3-4.5-7
			C44.7,20.5,40.6,20.9,40.6,20.9z"/>
		<path class="st9" d="M52.8,18.1c-2.2-2.8-11-4.4-13.1,2.4c-2.6,8.4,8.1,10.2,11.6,7.9C54.9,26.1,55.3,21.2,52.8,18.1z"/>
		<path class="st10" d="M47.1,18.1c0,0,0-1.2,0.3-3c0.2-0.9,0.4-1.9,0.8-3c0.2-0.5,0.4-1.1,0.6-1.6c0.2-0.6,0.5-1.1,0.8-1.6
			c0.3-0.5,0.6-1,1-1.5c0.4-0.5,0.7-1,1.1-1.4c0.4-0.4,0.8-0.8,1.2-1.1c0.4-0.3,0.8-0.6,1.2-0.9c0.4-0.2,0.8-0.4,1.1-0.6
			c0.3-0.1,0.7-0.2,0.9-0.3C56.7,2.9,57,2.8,57,2.8c0.2-0.1,0.4,0,0.5,0.2c0.1,0.2,0,0.4-0.2,0.4l-0.1,0c0,0-0.3,0.1-0.7,0.4
			C56.3,4,56,4.1,55.7,4.3c-0.3,0.2-0.6,0.4-0.9,0.6c-0.4,0.2-0.7,0.6-1,0.9c-0.4,0.3-0.7,0.7-1,1.1c-0.4,0.4-0.6,0.8-1,1.3
			c-0.3,0.5-0.6,0.9-0.9,1.4c-0.2,0.5-0.5,1-0.8,1.5c-0.2,0.5-0.4,1-0.6,1.5c-0.4,1-0.7,2-0.9,2.8c-0.5,1.7-0.7,2.8-0.7,2.8
			c0,0.2-0.2,0.3-0.4,0.3C47.2,18.5,47.1,18.3,47.1,18.1z"/>
		<path class="st11" d="M49.6,18.3c-1.2,1.3,1,5.7,2.7,5.3C54,23.1,50.8,16.9,49.6,18.3z"/>
	</g>
	<path class="st11" d="M61.4,28.3c-1.1,3.1,4.4,5.3,8.3,10.8c4.4,6.2,4.9,11.8,9.2,10.4c4.2-1.3,2.1-8.3-3.6-15.1
		C69.6,27.7,62.2,26,61.4,28.3z"/>
	<path class="st2" d="M15.6,31.3c-2.6,1.3-11.4,14.3-3,15.8c3.4,0.6,9-3.4,11.7-0.7c2.6,2.8,3.2,7.8,6.2,8.1
		c2.9,0.4,11.1-7.2,9.1-9.4c-2-2.2-5.5,3-7.2,1.6c-1.8-1.4-2.6-8.1-7.7-7.4C14.5,40.5,21,28.6,15.6,31.3z"/>
	<path class="st2" d="M40.8,43.8c-0.5,0.7,0,1.7,1.4,1.5c1.7-0.3,6.1-0.3,10.3,6.1c1.8,2.7,6.9,4.6,10.2,1.4
		c3.3-3.2,1.6-6.6,0.3-6.9c-1.3-0.3-3.9,3.2-5.8,1.4C53.7,43.9,44.8,38.1,40.8,43.8z"/>
	<path class="st12" d="M21.3,64.9c-0.9-0.1-1.1,1.3-0.2,1.4C22.1,66.4,22.2,65,21.3,64.9z"/>
	<path class="st12" d="M23.1,67.7c-0.9-0.1-1.1,1.3-0.2,1.4C23.8,69.2,24,67.8,23.1,67.7z"/>
	<path class="st12" d="M19.3,67.7c-0.9-0.1-1.1,1.3-0.2,1.4C20,69.2,20.2,67.8,19.3,67.7z"/>
	<path class="st12" d="M25.8,69.8c-0.9-0.1-1.1,1.3-0.2,1.4C26.5,71.3,26.7,69.9,25.8,69.8z"/>
	<path class="st12" d="M28.7,68.6c-0.9-0.1-1,1.1-0.1,1.2C29.4,69.9,29.6,68.7,28.7,68.6z"/>
	<path class="st12" d="M62.6,70c0.9,0.1,0.7,1.5-0.2,1.4C61.5,71.3,61.7,69.9,62.6,70z"/>
	<path class="st12" d="M60.2,72.3c0.9,0.1,0.7,1.5-0.2,1.4C59.1,73.6,59.3,72.2,60.2,72.3z"/>
	<path class="st12" d="M63.9,73.2c0.9,0.1,0.7,1.5-0.2,1.4C62.8,74.5,63,73.1,63.9,73.2z"/>
	<path class="st12" d="M57.1,73.6c0.9,0.1,0.7,1.5-0.2,1.4C56,74.9,56.2,73.5,57.1,73.6z"/>
	<path class="st12" d="M54.6,71.8c0.9,0.1,0.7,1.3-0.1,1.2C53.6,72.8,53.7,71.7,54.6,71.8z"/>
</g>
</svg>
